<svg xmlns="http://www.w3.org/2000/svg" xmlns:xlink="http://www.w3.org/1999/xlink" version="1.1" x="0px" y="0px" viewBox="0 0 358.185 394.66999999999996" style="enable-background:new 0 0 358.185 315.736;" xml:space="preserve"><g><path d="M126.59,225.612c14.537-8.615,47-5.784,70.094-1.78l6.314,57.356c0.446,4.019,3.812,7.068,7.855,7.105   c0.028,0,0.053,0,0.081,0c4.006,0,7.393-2.969,7.908-6.951l7.5-57.86c3.719-5.698,15.399-0.636,27.234,3.426l2.768,14.995   c12.366-4.155,22.932-5.975,27.942-1.542c16.022,14.179,15.266,26.315,19.123,31.667c3.857,5.352,19.026,7.327,19.102-6.121   c0.063-10.179,10.397-32.684,13.515-47.534c5.798,0.826,9.784,3.091,9.932-0.04c0.14-2.947-3.699-5.616-9.059-6.645   c0.029-1.518-0.116-2.847-0.463-3.955c3.428-3.598,5.021-6.175,2.981-8.256c-1.763-1.796-5.345-1.328-9.091,0.852   c-10.802-8.621-47.469-62.506-53.558-67.06l-7.037,19.025l-4.297-25.692c-13.333-13.333-63.087-16.052-67.333-15.666   c0,0-57.248-1.534-96-5.333c-25.055-2.457-49.682,8.986-65.365,12.023c-11.348-0.722-18.292,3.219-22.405,5.412   c-4.274,2.279-6.266,6.553-7.409,13.678l-2.554,57.242c-2.576,0.824-4.449,3.955-4.364,12.492   c0.101,10.227,2.968,24.327,6.33,24.291c3.361-0.032,5.949-14.185,5.848-24.408c-0.081-8.161-1.85-11.349-4.269-12.29   c0.587-28.203,6.227-53.53,6.227-53.53l8.289-6.215c0.242,11.392,1.447,30.696,4.791,48.279l-11.437,41.969   c-0.385,1.424-0.375,2.904,0.041,4.323l16.492,56.716c1.006,3.447,4.157,5.75,7.652,5.75c0.417,0,0.835-0.032,1.257-0.101   c3.97-0.625,6.853-4.108,6.727-8.131l-1.145-36.693l23.481,40.915c1.46,2.546,4.148,4.006,6.934,4.006   c1.05,0,2.12-0.211,3.139-0.649c3.718-1.602,5.653-5.758,4.481-9.631L70.81,234.566l4.027-5.385   C93.424,232.77,113.54,233.343,126.59,225.612z M314.767,223.604c2.016-1.84,5.141-1.693,6.978,0.32   c1.839,2.016,1.697,5.138-0.319,6.978c-2.016,1.839-5.138,1.696-6.978-0.32C312.611,228.569,312.751,225.443,314.767,223.604z"/><path d="M353.984,303.863c0-0.662-1.091-0.662-1.091-1.324c0-0.663,0.674-0.663,0.674-1.326c0-0.664,4.375-0.664,4.375-1.327   c0-0.665-2.007-0.633-2.472-1.108c-0.454-0.465-0.424-0.119-1.073-0.119s-0.65,2.182-1.3,2.182c-0.648,0-0.648-2.927-1.296-2.927   c-0.647,0-0.647,1.191-1.294,1.191c-0.644,0-0.644-1.798-1.287-1.798c-0.645,0-0.645,4.622-1.29,4.622   c-0.645,0-0.645-1.412-1.291-1.412c-0.646,0-0.646-3.039-1.293-3.039c-0.644,0-0.644,1.75-1.288,1.75   c-0.644,0-0.644-3.455-1.288-3.455c-0.646,0-0.646,2.546-1.291,2.546c-0.643,0-0.643-1.091-1.285-1.091   c-0.642,0-0.642,4.677-1.283,4.677c-0.642,0-0.642-6.21-1.285-6.21c-0.645,0-0.645,3.391-1.289,3.391   c-0.267,0-0.422,0.168-0.559,0.363c0.945-9.09,4.657-17.858,4.657-17.858s-4.718,4.734-7.905,14.252   c-0.016-0.007-0.03-0.023-0.047-0.023c-0.644,0-0.644,2.651-1.288,2.651c-0.643,0-0.643-0.902-1.286-0.902   c-0.643,0-0.643,3.802-1.286,3.802c-0.643,0-0.643-4.695-1.286-4.695c-0.644,0-0.644-0.486-1.288-0.486   c-0.644,0-0.644,5.343-1.287,5.343c-0.222,0-0.365-0.134-0.486-0.305c-0.251-14.304,6.66-30.624,6.66-30.624   s-10.121,10.133-13.573,30.584c-0.086,0.166-0.187,0.271-0.313,0.271c-0.643,0-0.643-1.034-1.286-1.034   c-0.642,0-0.642-1.174-1.284-1.174c-0.641,0-0.641-1.966-1.282-1.966c-0.232,0-0.379,0.312-0.504,0.704   c-3.631-11.856-9.508-17.741-9.508-17.741s3.254,7.684,4.79,16.574c-0.546,0.462-0.579,4.778-1.186,4.778   c-0.642,0-0.642-2.011-1.284-2.011c-0.643,0-0.643,1.03-1.286,1.03c-0.643,0-0.643-4.64-1.286-4.64   c-0.288,0-0.447,0.534-0.592,1.123c-3.526-13.382-10.156-20.021-10.156-20.021s5.034,11.892,5.534,23.204   c-0.542-0.097-0.582-0.982-1.186-0.982c-0.638,0-0.638-2.552-1.277-2.552c-0.638,0-0.638,2.142-1.276,2.142   c-0.049,0-0.093,0.021-0.135,0.052c-3.78-18.948-13.16-28.342-13.16-28.342s5.797,13.698,6.577,26.994   c-0.333,0.137-0.445,0.452-0.947,0.452c-0.64,0-0.64-0.946-1.281-0.946c-0.618,0-0.642,2.531-1.218,2.71   c-3.03-12.167-9.048-18.222-9.048-18.222s4.219,9.971,4.804,19.671c-0.339-0.7-0.446-2.368-0.953-2.368   c-0.641,0-0.641-3.567-1.282-3.567c-0.641,0-0.641,0.51-1.282,0.51c-0.641,0-0.641,5.039-1.281,5.039   c-0.641,0-0.641-5.146-1.281-5.146c-0.641,0-0.641,0.838-1.281,0.838c-0.641,0-0.641,3.886-1.281,3.886   c-0.641,0-0.641-1.36-1.282-1.36c-0.641,0-0.641-1.337-1.282-1.337c-0.641,0-0.641,0.788-1.283,0.788   c-0.642,0-0.642,3.166-1.284,3.166c-0.642,0-0.642-6.328-1.284-6.328c-0.642,0-0.642,1.898-1.283,1.898   c-0.641,0-0.641,2.595-1.282,2.595c-0.641,0-0.641-2.827-1.282-2.827c-0.641,0-0.641,0.558-1.281,0.558   c-0.64,0-0.64-1.293-1.281-1.293c-0.64,0-0.64-0.914-1.28-0.914c-0.64,0-0.64,4.25-1.28,4.25c-0.64,0-0.64,1.779-1.28,1.779   c-0.64,0-0.64-2.472-1.28-2.472c-0.64,0-0.64-3.281-1.28-3.281c-0.64,0-0.64,4.441-1.28,4.441c-0.64,0-0.64-2.907-1.28-2.907   c-0.64,0-0.64,2.842-1.281,2.842c-0.641,0-0.641-2.87-1.281-2.87c-0.641,0-0.641,0.713-1.282,0.713   c-0.641,0-0.641,3.604-1.282,3.604c-0.641,0-0.641-6.161-1.283-6.161c-0.642,0-0.642,6.453-1.284,6.453   c-0.641,0-0.641-0.135-1.283-0.135c-0.641,0-0.641-5.71-1.282-5.71c-0.641,0-0.641,4.443-1.281,4.443   c-0.64,0-0.64,0.788-1.281,0.788c-0.64,0-0.64-3.163-1.28-3.163c-0.64,0-0.64,0.233-1.28,0.233c-0.64,0-0.64,1.763-1.279,1.763   c-0.639,0-0.639-2.877-1.279-2.877c-0.639,0-0.639,4.701-1.278,4.701c-0.639,0-0.639-5.762-1.278-5.762   c-0.639,0-0.639,5.705-1.278,5.705c-0.639,0-0.639-0.728-1.278-0.728c-0.639,0-0.639,0.029-1.278,0.029s-0.639-4.89-1.278-4.89   c-0.639,0-0.639,1.837-1.278,1.837c-0.639,0-0.639,2.672-1.278,2.672c-0.639,0-0.639-1.489-1.278-1.489   c-0.639,0-0.639-3.525-1.279-3.525c-0.639,0-0.639,0.484-1.279,0.484c-0.64,0-0.64,0.195-1.279,0.195   c-0.64,0-0.64-0.645-1.28-0.645c-0.64,0-0.64,0.614-1.28,0.614c-0.64,0-0.64,1.264-1.281,1.264c-0.641,0-0.641,0.206-1.281,0.206   c-0.641,0-0.641-0.476-1.282-0.476c-0.641,0-0.641,2.841-1.282,2.841c-0.641,0-0.641-4.881-1.282-4.881   c-0.641,0-0.641,5.95-1.282,5.95c-0.641,0-0.641-4.151-1.281-4.151c-0.64,0-0.64-0.233-1.28-0.233c-0.64,0-0.64,4.683-1.28,4.683   c-0.64,0-0.64-4.898-1.279-4.898c-0.639,0-0.639,3.475-1.279,3.475c-0.639,0-0.639-1.831-1.278-1.831   c-0.639,0-0.639-1.817-1.278-1.817c-0.639,0-0.639,0.44-1.277,0.44c-0.638,0-0.638,1.764-1.277,1.764   c-0.638,0-0.638,1.14-1.276,1.14c-0.638,0-0.638,2.193-1.276,2.193c-0.638,0-0.638-0.89-1.276-0.89c-0.638,0-0.638-5.07-1.276-5.07   c-0.638,0-0.638,3.468-1.275,3.468s-0.638-0.116-1.275-0.116c-0.638,0-0.638,1.393-1.275,1.393s-0.638-5.063-1.275-5.063   s-0.637,0.556-1.275,0.556c-0.637,0-0.637,2.256-1.275,2.256s-0.637-1.895-1.275-1.895s-0.637,3.49-1.275,3.49   s-0.638,1.38-1.275,1.38s-0.638-3.671-1.275-3.671c-0.638,0-0.638-1.225-1.275-1.225c-0.638,0-0.638,0.879-1.275,0.879   c-0.638,0-0.638,1.484-1.276,1.484c-0.638,0-0.638-0.991-1.276-0.991c-0.638,0-0.638-0.781-1.276-0.781   c-0.638,0-0.638,4.654-1.276,4.654c-0.638,0-0.638-3.733-1.277-3.733c-0.639,0-0.639,3.445-1.277,3.445   c-0.639,0-0.639,0.194-1.277,0.194c-0.639,0-0.639-1.178-1.278-1.178c-0.639,0-0.639-2.552-1.278-2.552   c-0.639,0-0.639-1.735-1.279-1.735c-0.64,0-0.64,5.498-1.279,5.498c-0.64,0-0.64-3.268-1.28-3.268c-0.64,0-0.64,1.804-1.28,1.804   c-0.641,0-0.641-1.599-1.281-1.599c-0.641,0-0.641-3.069-1.281-3.069c-0.64,0-0.64,3.81-1.28,3.81c-0.64,0-0.64-0.675-1.28-0.675   c-0.639,0-0.639-1.369-1.279-1.369c-0.639,0-0.639,0.901-1.278,0.901c-0.639,0-0.639-1.635-1.278-1.635   c-0.639,0-0.639,4.413-1.277,4.413c-0.638,0-0.638-4.338-1.277-4.338c-0.638,0-0.638,2.439-1.276,2.439   c-0.638,0-0.638,0.354-1.276,0.354c-0.638,0-0.638-2.953-1.275-2.953c-0.637,0-0.637,3.701-1.275,3.701   c-0.637,0-0.637,0.901-1.274,0.901c-0.637,0-0.637-5.736-1.274-5.736c-0.637,0-0.637,6.085-1.274,6.085   c-0.637,0-0.637-4.688-1.273-4.688c-0.636,0-0.636,4.566-1.273,4.566c-0.636,0-0.636-3.091-1.273-3.091   c-0.636,0-0.636,0.701-1.272,0.701c-0.636,0-0.636-3.728-1.272-3.728c-0.636,0-0.636,2.961-1.272,2.961   c-0.636,0-0.636,1.77-1.271,1.77c-0.636,0-0.636,1.623-1.271,1.623c-0.635,0-0.635-3.023-1.271-3.023   c-0.635,0-0.635-2.844-1.271-2.844c-0.635,0-0.635,0.955-1.271,0.955s-0.635,2.236-1.271,2.236c-0.635,0-0.635-1.137-1.27-1.137   c-0.635,0-0.635,2.616-1.27,2.616s-0.635-4.121-1.27-4.121s-0.635,0.751-1.27,0.751c-0.635,0-0.635,3.378-1.27,3.378   c-0.635,0-0.635,1.298-1.27,1.298s-0.635-2.465-1.27-2.465s-0.635-4.152-1.27-4.152s-0.635,6.509-1.27,6.509   c-0.635,0-0.635-0.814-1.27-0.814c-0.635,0-0.635-3.488-1.27-3.488c-0.635,0-0.635-1.547-1.27-1.547   c-0.635,0-0.635-0.268-1.27-0.268c-0.635,0-0.635,0.286-1.27,0.286c-0.635,0-0.635,0.269-1.271,0.269   c-0.635,0-0.635,1.821-1.271,1.821c-0.635,0-0.635-1.05-1.271-1.05c-0.635,0-0.635,4.945-1.271,4.945   c-0.636,0-0.636-6.454-1.271-6.454c-0.636,0-0.636,3.989-1.271,3.989c-0.636,0-0.636-1.267-1.271-1.267   c-0.636,0-0.636,2.286-1.272,2.286c-0.636,0-0.636-4.62-1.272-4.62c-0.636,0-0.636,4.07-1.272,4.07   c-0.636,0-0.636-2.303-1.273-2.303c-0.636,0-0.636,2.512-1.273,2.512c-0.637,0-0.637-0.439-1.273-0.439   c-0.637,0-0.637-2.578-1.273-2.578c-0.637,0-0.637-0.764-1.274-0.764c-0.637,0-0.637,2.909-1.274,2.909   c-0.637,0-0.637-0.388-1.274-0.388c-0.637,0-0.637,1.597-1.275,1.597c-0.638,0-0.638-4.626-1.275-4.626   c-0.638,0-0.638,2.349-1.276,2.349c-0.638,0-0.638,2.485-1.276,2.485c-0.638,0-0.638,0.06-1.276,0.06   c-0.638,0-0.638-3.277-1.277-3.277c-0.639,0-0.639-0.447-1.278-0.447c-0.639,0-0.639,4.247-1.278,4.247   c-0.639,0-0.639-5.646-1.279-5.646c-0.639,0-0.639,5.879-1.279,5.879c-0.639,0-0.639,0.147-1.279,0.147   c-0.639,0-0.639-2.369-1.278-2.369c-0.639,0-0.639-3.536-1.278-3.536c-0.639,0-0.639,4.12-1.278,4.12c-0.639,0-0.639-4.6-1.278-4.6   c-0.639,0-0.639,5.422-1.277,5.422s-0.639,0.187-1.277,0.187c-0.638,0-0.638,0.634-1.277,0.634c-0.638,0-0.638-0.193-1.277-0.193   c-0.638,0-0.638-4.428-1.277-4.428c-0.638,0-0.638,4.887-1.276,4.887c-0.638,0-0.638,0.127-1.276,0.127   c-0.638,0-0.638-0.049-1.276-0.049c-0.638,0-0.638-3.539-1.276-3.539c-0.638,0-0.638-0.726-1.276-0.726   c-0.638,0-0.638,0.164-1.276,0.164c-0.638,0-0.638-1.555-1.276-1.555s-0.638,5.856-1.276,5.856s-0.638-0.716-1.276-0.716   s-0.638-1.635-1.276-1.635c-0.638,0-0.638-1.498-1.275-1.498s-0.638-1.804-1.275-1.804c-0.638,0-0.638-0.606-1.275-0.606   c-0.638,0-0.638,3.445-1.275,3.445c-0.638,0-0.638,2.463-1.275,2.463s-0.638-3.452-1.275-3.452c-0.638,0-0.638,0.466-1.275,0.466   s-0.638,2.607-1.275,2.607c-0.638,0-0.638-5.899-1.275-5.899c-0.638,0-0.638,2.975-1.275,2.975s-0.638,1.082-1.275,1.082   s-0.638-3.362-1.275-3.362s-0.638,5.651-1.276,5.651s-0.638-4.691-1.276-4.691s-0.638,5.005-1.276,5.005   c-0.638,0-0.638-0.014-1.276-0.014c-0.638,0-0.638-2.263-1.276-2.263c-0.638,0-0.638-1.926-1.276-1.926s-0.638,0.754-1.276,0.754   s-0.638-0.197-1.276-0.197c-0.638,0-0.638-1.641-1.276-1.641c-0.638,0-0.638,0.619-1.276,0.619c-0.638,0-0.638,0.454-1.277,0.454   c-0.638,0-0.638-0.931-1.277-0.931c-0.638,0-0.638,1.262-1.277,1.262c-0.639,0-1.551-0.698-1.992-0.236   c-0.462,0.483,3.924,1.351,3.924,2.02c0,0.668-0.313,0.668-0.313,1.337c0,0.667-6.077,0.667-6.077,1.333   c0,0.666,0.004,0.666,0.004,1.331c0,0.662,4.71,0.662,4.71,1.324c0,0.663-4.553,0.663-4.553,1.326c0,0.664,2.091,0.664,2.091,1.327   c0,0.665-0.736,2.027-0.271,2.502c0.379,0.387,1.409-0.962,2.119-1.423v6.785h345.18v-9.985c0.859-0.137,1.569-0.296,1.569-0.557   C358.185,304.529,353.984,304.529,353.984,303.863z"/><path d="M282.229,29.788c4.69-4.103,12.273-0.706,14.989,0.906c1.597-2.726,6.59-9.365,12.68-8.045   c-6.482-7.295-13.765,3.842-13.765,3.842S284.372,20.266,282.229,29.788z"/><path d="M310.244,41.834c4.69-4.105,12.272-0.707,14.989,0.906c1.596-2.727,6.59-9.367,12.679-8.046   c-6.481-7.296-13.764,3.841-13.764,3.841S312.385,32.313,310.244,41.834z"/><path d="M328.63,6.32c0,0-11.763-6.223-13.904,3.298c4.691-4.104,12.272-0.707,14.989,0.906c1.596-2.727,6.588-9.368,12.68-8.045   C335.913-4.819,328.63,6.32,328.63,6.32z"/><path d="M190.937,71.579c0.641-1.779,1.809-3.302,3.321-4.383c-8.244-2.213-14.321-9.716-14.321-18.659   c0-10.682,8.658-19.34,19.34-19.34c8.837,0,16.273,5.932,18.583,14.027c-2.683,2.13-4.888,4.833-6.431,7.926   c5.161,0.19,9.69,2.852,12.417,6.855c-2.825-2.712-6.654-4.388-10.88-4.388c-7.419,0-13.622,5.146-15.275,12.06   c0.621-0.132,1.265-0.204,1.926-0.204c5.1,0,9.233,4.133,9.233,9.232c0,0.316-0.016,0.628-0.047,0.936   c-0.469-4.66-4.402-8.297-9.186-8.297c-4.784,0-8.718,3.637-9.187,8.297c-0.031,0.308-0.047,0.62-0.047,0.936   c0,5.102,4.135,9.234,9.234,9.234c2.416,0,4.608-0.935,6.254-2.454c2.134,1.083,4.54,1.706,7.096,1.706   c3.214,0,6.2-0.968,8.69-2.623c3.227,1.673,6.889,2.623,10.774,2.623c0.335,0,0.667-0.011,0.998-0.025   c12.493-0.524,22.463-10.814,22.463-23.436c0-12.62-9.969-22.908-22.463-23.432c-0.331-0.014-0.663-0.025-0.998-0.025   c-3.594,0-6.998,0.811-10.042,2.255c-3.356-9.53-12.433-16.363-23.111-16.363c-13.531,0-24.5,10.969-24.5,24.5   C174.778,59.139,181.513,68.167,190.937,71.579z"/><path d="M330.218,84.743c1.19,2.199,1.867,4.716,1.867,7.392c0,4.41-1.844,8.383-4.792,11.214c1.698-2.492,2.693-5.502,2.693-8.745   c0-8.59-6.963-15.553-15.553-15.553c-4.182,0-7.971,1.659-10.766,4.344c-2.106,2.023-3.635,4.631-4.341,7.565   c-0.4-0.053-0.805-0.091-1.219-0.091c-5.045,0-9.134,4.09-9.134,9.135c0,5.045,4.089,9.135,9.134,9.135   c2.478,0,4.722-0.991,6.368-2.593c2.698,2.252,6.169,3.61,9.958,3.61c3.667,0,7.03-1.276,9.689-3.399   c2.286,2.104,5.328,3.399,8.68,3.399c7.09,0,12.838-5.746,12.838-12.836c0-7.089-5.748-12.837-12.838-12.837   C331.917,84.483,331.053,84.572,330.218,84.743z"/><path d="M248.216,80.578c2.379,2.742,5.882,4.485,9.797,4.485c7.168,0,12.978-5.811,12.978-12.977   c0-7.168-5.81-12.979-12.978-12.979c-0.087,0-0.17,0.011-0.257,0.013c0.086,0.815,0.132,1.643,0.132,2.481   C257.888,69.404,254.075,76.313,248.216,80.578z"/></g><text x="0" y="330.736" fill="#000000" font-size="5px" font-weight="bold" font-family="'Helvetica Neue', Helvetica, Arial-Unicode, Arial, Sans-serif">Created by Gan Khoon Lay</text><text x="0" y="335.736" fill="#000000" font-size="5px" font-weight="bold" font-family="'Helvetica Neue', Helvetica, Arial-Unicode, Arial, Sans-serif">from the Noun Project</text></svg>